{"title":"2 young girls one guy","uid":6650142,"size":72037896,"categoryP":"porn","categoryS":"movie_clips","magnet":"?xt=urn:btih:1ff60c6f977970ac8ed3ef9bb6f2aacb7ca29e03&amp;dn=2+young+girls+one+guy&amp;tr=udp%3A%2F%2Ftracker.openbittorrent.com%3A80&amp;tr=udp%3A%2F%2Fopen.demonii.com%3A1337&amp;tr=udp%3A%2F%2Ftracker.coppersurfer.tk%3A6969&amp;tr=udp%3A%2F%2Fexodus.desync.com%3A6969","seeders":0,"leechers":0,"uploader":"stu181","files":1,"time":1315115756,"description":"Brought to you by  &lt;a href=&quot; http://www.protorrent.co.uk&quot; rel=&quot;nofollow&quot; target=&quot;_NEW&quot;&gt; http://www.protorrent.co.uk&lt;/a&gt;\n\nFormat                           : MPEG-PS\nFile size                        : 68.7 MiB\nDuration                         : 1mn 0s\nOverall bit rate                 : 9 526 Kbps\n\nVideo\nID                               : 224 (0xE0)\nFormat                           : MPEG Video\nFormat version                   : Version 1\nFormat settings, BVOP            : Yes\nFormat settings, Matrix          : Default\nDuration                         : 1mn 0s\nBit rate                         : 9 304 Kbps\nMaximum bit rate                 : 728 Kbps\nWidth                            : 352 pixels\nHeight                           : 240 pixels\nDisplay aspect ratio             : 4:3\nFrame rate                       : 29.970 fps\nStandard                         : NTSC\nColor space                      : YUV\nBit depth                        : 8 bits\nScan type                        : Progressive\nCompression mode                 : Lossy\nBits/(Pixel*Frame)               : 3.675\nStream size                      : 67.1 MiB (98%)\n\nAudio\nID                               : 192 (0xC0)\nFormat                           : MPEG Audio\nFormat version                   : Version 1\nFormat profile                   : Layer 2\nDuration                         : 14s 655ms\nBit rate mode                    : Constant\nBit rate                         : 32.0 Kbps\nChannel(s)                       : 1 channel\nSampling rate                    : 44.1 KHz\nCompression mode                 : Lossy\nDelay relative to video          : 12ms\nStream size                      : 57.2 KiB (0%)","torrent":{"xt":"urn:btih:1ff60c6f977970ac8ed3ef9bb6f2aacb7ca29e03","amp;dn":"2+young+girls+one+guy","amp;tr":["udp%3A%2F%2Ftracker.openbittorrent.com%3A80","udp%3A%2F%2Fopen.demonii.com%3A1337","udp%3A%2F%2Ftracker.coppersurfer.tk%3A6969","udp%3A%2F%2Fexodus.desync.com%3A6969"],"infoHash":"1ff60c6f977970ac8ed3ef9bb6f2aacb7ca29e03","infoHashBuffer":{"type":"Buffer","data":[31,246,12,111,151,121,112,172,142,211,239,155,182,242,170,203,124,162,158,3]},"announce":[],"urlList":[]}}